<svg xmlns="http://www.w3.org/2000/svg" width="800" height="500" viewBox="0 0 800 500" fill="none">
  <defs>
    <linearGradient id="bg" x1="0" y1="0" x2="1" y2="1">
      <stop offset="0%" stop-color="#EFF6FF" />
      <stop offset="100%" stop-color="#E0F2FE" />
    </linearGradient>
    <linearGradient id="bar" x1="0" y1="1" x2="0" y2="0">
      <stop offset="0%" stop-color="#3B82F6" />
      <stop offset="100%" stop-color="#22D3EE" />
    </linearGradient>
  </defs>

  <rect width="800" height="500" rx="24" fill="url(#bg)" />

  <g stroke="#BFDBFE" stroke-opacity="0.95">
    <line x1="110" y1="400" x2="700" y2="400" />
    <line x1="110" y1="335" x2="700" y2="335" />
    <line x1="110" y1="270" x2="700" y2="270" />
    <line x1="110" y1="205" x2="700" y2="205" />
    <line x1="110" y1="140" x2="700" y2="140" />
  </g>

  <g fill="url(#bar)">
    <rect x="150" y="310" width="60" height="90" rx="10" />
    <rect x="240" y="270" width="60" height="130" rx="10" />
    <rect x="330" y="225" width="60" height="175" rx="10" />
    <rect x="420" y="182" width="60" height="218" rx="10" />
    <rect x="510" y="138" width="60" height="262" rx="10" />
    <rect x="600" y="96" width="60" height="304" rx="10" />
  </g>

  <polyline
    points="180,296 270,258 360,212 450,170 540,130 630,86"
    stroke="#0EA5E9"
    stroke-width="10"
    fill="none"
    stroke-linecap="round"
    stroke-linejoin="round"
  />
  <line x1="630" y1="86" x2="712" y2="45" stroke="#2563EB" stroke-width="10" stroke-linecap="round" />
  <polygon points="712,45 684,48 699,72" fill="#2563EB" />
</svg>
